# File created by Blade
# Date/Time:  Wed Sep 24 19:10:19 2014
# Frame Rate: 120.000 fps
#------------------------------------------------------
:FULLY-SPECIFIED
:DEGREES
3222
root -6.950220 33.599732 -2.557435 35.030899 8.167120 16.727577
Spine -27.884190 8.675093 -9.139336
Head 3.020453 28.617799 2.373138
LeftShoulder -7.862176 15.474566 12.860099
LeftArm 28.139114 -11.934054 -83.290800
LeftForeArm 7.939117 -0.000000 84.832465
LeftHand -29.254076 -0.000000 34.081500
LeftHandThumb1 -26.253704 0.000000 33.147579
RightShoulder -16.533598 7.279274 -18.891369
RightArm -13.105330 -24.511956 75.788634
RightForeArm -23.420542 -0.000000 33.603638
RightHand -4.450226 -0.000000 9.921135
RightHandThumb1 -24.326973 -0.000000 -32.862282
LeftUpLeg 0.852632 17.508182 10.564564
LeftLeg 125.915861 -0.000000 -0.000000
LeftFoot 38.870752 8.009692 -17.040136
LeftToeBase 8.106815 -0.000000 -0.000000
RightUpLeg -34.242120 -11.806006 -6.492928
RightLeg 13.383446 -0.000000 -0.000000
RightFoot -11.932356 -18.206038 -8.550585
RightToeBase -2.389002 -0.000000 0.000000
3223
root -6.949361 33.605621 -2.564492 35.147895 8.277072 16.802825
Spine -27.852899 8.567499 -9.010009
Head 2.921641 28.698272 2.099533
LeftShoulder -7.898478 15.467070 12.755697
LeftArm 28.218166 -11.847696 -83.307401
LeftForeArm 7.941593 -0.000000 84.891464
LeftHand -29.307244 -0.000000 34.150001
LeftHandThumb1 -26.253704 0.000000 33.147579
RightShoulder -16.513884 7.260730 -18.972963
RightArm -13.021785 -24.471233 75.698529
RightForeArm -23.459247 -0.000000 33.602142
RightHand -4.405403 -0.000000 9.929515
RightHandThumb1 -24.326973 -0.000000 -32.862282
LeftUpLeg 0.859609 17.487534 10.634604
LeftLeg 125.666569 -0.000000 -0.000000
LeftFoot 38.759008 8.127599 -17.011576
LeftToeBase 8.335779 -0.000000 -0.000000
RightUpLeg -34.322878 -11.960907 -6.471878
RightLeg 13.354766 -0.000000 -0.000000
RightFoot -11.981854 -18.151418 -8.411235
RightToeBase -2.253360 -0.000000 0.000000
3224
root -6.949566 33.609943 -2.569566 35.256214 8.304800 16.854617
Spine -27.849695 8.532394 -8.951146
Head 2.900629 28.786627 1.989832
LeftShoulder -7.871496 15.399065 12.737749
LeftArm 28.174232 -11.788084 -83.338765
LeftForeArm 8.016510 -0.000000 84.979938
LeftHand -29.331930 -0.000000 34.091715
LeftHandThumb1 -26.253704 0.000000 33.147579
RightShoulder -16.478239 7.238607 -19.019586
RightArm -12.970167 -24.429902 75.619031
RightForeArm -23.493506 0.000000 33.614200
RightHand -4.414318 -0.000000 9.889262
RightHandThumb1 -24.326973 -0.000000 -32.862282
LeftUpLeg 0.928652 17.530280 10.692055
LeftLeg 125.386332 -0.000000 -0.000000
LeftFoot 38.668606 8.255454 -16.992543
LeftToeBase 8.360527 -0.000000 -0.000000
RightUpLeg -34.414471 -12.048346 -6.467279
RightLeg 13.316442 -0.000000 -0.000000
RightFoot -11.880071 -18.164632 -8.491036
RightToeBase -2.451623 -0.000000 0.000000
3225
root -6.949271 33.614605 -2.576151 35.376148 8.310733 16.899327
Spine -27.855457 8.506828 -8.907476
Head 2.853881 28.857453 1.873669
LeftShoulder -7.868807 15.344723 12.695933
LeftArm 28.188423 -11.721010 -83.379883
LeftForeArm 8.047563 0.000000 85.084099
LeftHand -29.463295 -0.000000 34.191308
LeftHandThumb1 -26.253704 0.000000 33.147579
RightShoulder -16.421877 7.243419 -19.057156
RightArm -12.944991 -24.420761 75.542360
RightForeArm -23.485249 -0.000000 33.603964
RightHand -4.388016 -0.000000 9.860608
RightHandThumb1 -24.326973 -0.000000 -32.862282
LeftUpLeg 0.983324 17.590159 10.738135
LeftLeg 125.109060 -0.000000 -0.000000
LeftFoot 38.645890 8.357375 -17.035899
LeftToeBase 7.976717 -0.000000 -0.000000
RightUpLeg -34.525372 -12.127368 -6.463957
RightLeg 13.282992 -0.000000 -0.000000
RightFoot -11.857919 -18.120320 -8.488158
RightToeBase -2.442858 -0.000000 0.000000
3226
root -6.951138 33.617355 -2.583738 35.496154 8.315745 16.926582
Spine -27.843289 8.501887 -8.853890
Head 2.767123 28.911641 1.741537
LeftShoulder -7.850426 15.304105 12.671077
LeftArm 28.177259 -11.663330 -83.424275
LeftForeArm 8.130819 0.000000 85.226265
LeftHand -29.492232 -0.000000 34.306045
LeftHandThumb1 -26.253704 0.000000 33.147579
RightShoulder -16.396515 7.242962 -19.118422
RightArm -12.903223 -24.399174 75.489548
RightForeArm -23.501807 -0.000000 33.591896
RightHand -4.412037 -0.000000 9.754596
RightHandThumb1 -24.326973 -0.000000 -32.862282
LeftUpLeg 1.038668 17.631541 10.800745
LeftLeg 124.890380 -0.000000 -0.000000
LeftFoot 38.614076 8.432476 -17.274600
LeftToeBase 8.125400 -0.000000 -0.000000
RightUpLeg -34.640340 -12.219657 -6.423539
RightLeg 13.237888 -0.000000 -0.000000
RightFoot -11.856310 -18.051571 -8.453369
RightToeBase -2.450359 -0.000000 0.000000
3227
root -6.951453 33.622706 -2.593134 35.646835 8.305973 16.968397
Spine -27.862353 8.462628 -8.801056
Head 2.697589 29.050223 1.614548
LeftShoulder -7.860086 15.224512 12.643319
LeftArm 28.081502 -11.582408 -83.451185
LeftForeArm 8.147617 -0.000000 85.438943
LeftHand -29.628739 -0.000000 34.351221
LeftHandThumb1 -26.253704 0.000000 33.147579
RightShoulder -16.349704 7.267863 -19.179738
RightArm -12.881448 -24.359555 75.432186
RightForeArm -23.539222 -0.000000 33.618692
RightHand -4.490757 -0.000000 9.808257
RightHandThumb1 -24.326973 -0.000000 -32.862282
LeftUpLeg 1.050854 17.682459 10.808642
LeftLeg 124.684539 -0.000000 -0.000000
LeftFoot 38.574535 8.327007 -17.107972
LeftToeBase 8.319267 -0.000000 -0.000000
RightUpLeg -34.792315 -12.372055 -6.366509
RightLeg 13.182169 -0.000000 -0.000000
RightFoot -11.821075 -17.937338 -8.487810
RightToeBase -2.478228 -0.000000 0.000000
3228
root -6.953254 33.625731 -2.602882 35.772871 8.284856 16.991090
Spine -27.862107 8.485883 -8.788276
Head 2.616244 29.081046 1.534235
LeftShoulder -7.856288 15.202655 12.636041
LeftArm 28.081018 -11.454676 -83.485334
LeftForeArm 8.214649 -0.000000 85.635851
LeftHand -29.670964 -0.000000 34.378843
LeftHandThumb1 -26.253704 0.000000 33.147579
RightShoulder -16.336568 7.259715 -19.182183
RightArm -12.841876 -24.345646 75.321249
RightForeArm -23.548438 -0.000000 33.656177
RightHand -4.486816 0.000000 9.860801
RightHandThumb1 -24.326973 -0.000000 -32.862282
LeftUpLeg 1.114025 17.747706 10.867073
LeftLeg 124.501033 -0.000000 -0.000000
LeftFoot 38.578101 8.356482 -17.023054
LeftToeBase 7.884140 -0.000000 -0.000000
RightUpLeg -34.921565 -12.497290 -6.299482
RightLeg 13.125340 -0.000000 -0.000000
RightFoot -11.882703 -17.793071 -8.427448
RightToeBase -2.283608 -0.000000 0.000000
3229
root -6.955386 33.628574 -2.615496 35.925173 8.250392 16.995821
Spine -27.868887 8.504300 -8.738118
Head 2.469915 29.125470 1.387822
LeftShoulder -7.961160 15.345698 12.557397
LeftArm 28.305555 -11.343943 -83.606886
LeftForeArm 8.275145 0.000000 85.802167
LeftHand -29.748897 -0.000000 34.404081
LeftHandThumb1 -26.253704 0.000000 33.147579
RightShoulder -16.301609 7.298767 -19.210983
RightArm -12.854947 -24.341038 75.241859
RightForeArm -23.588930 -0.000000 33.716581
RightHand -4.497659 0.000000 9.856412
RightHandThumb1 -24.326973 -0.000000 -32.862282
LeftUpLeg 1.133459 17.813834 10.906430
LeftLeg 124.376815 -0.000000 -0.000000
LeftFoot 38.590264 8.545294 -17.393533
LeftToeBase 7.765003 -0.000000 -0.000000
RightUpLeg -35.088509 -12.630277 -6.205223
RightLeg 13.054724 -0.000000 -0.000000
RightFoot -11.867107 -17.642496 -8.455283
RightToeBase -2.291181 -0.000000 0.000000
3230
root -6.957507 33.631255 -2.628036 36.070750 8.211947 16.997550
Spine -27.869723 8.500889 -8.676972
Head 2.334938 29.252084 1.254754
LeftShoulder -8.034757 15.390361 12.537468
LeftArm 28.365950 -11.252720 -83.764486
LeftForeArm 8.374598 0.000000 85.997308
LeftHand -29.687594 -0.000000 34.376663
LeftHandThumb1 -26.253704 0.000000 33.147579
RightShoulder -16.269096 7.322224 -19.247357
RightArm -12.805475 -24.375395 75.160830
RightForeArm -23.571322 -0.000000 33.718639
RightHand -4.478674 -0.000000 9.803129
RightHandThumb1 -24.326973 -0.000000 -32.862282
LeftUpLeg 1.186198 17.894364 10.964118
LeftLeg 124.277756 -0.000000 -0.000000
LeftFoot 38.526673 8.473236 -17.216995
LeftToeBase 8.129509 -0.000000 -0.000000
RightUpLeg -35.242764 -12.728328 -6.132257
RightLeg 12.976652 -0.000000 -0.000000
RightFoot -11.838671 -17.510222 -8.474827
RightToeBase -2.316154 -0.000000 0.000000
3231
root -6.959379 33.634421 -2.640584 36.216664 8.163798 16.999781
Spine -27.872864 8.515428 -8.648029
Head 2.240448 29.373977 1.200830
LeftShoulder -8.123624 15.397156 12.491252
LeftArm 28.446048 -11.182094 -83.926270
LeftForeArm 8.561371 -0.000000 86.174073
LeftHand -29.759763 0.000000 34.474948
LeftHandThumb1 -26.253704 0.000000 33.147579
RightShoulder -16.256171 7.308437 -19.235001
RightArm -12.735655 -24.386172 75.039175
RightForeArm -23.519329 -0.000000 33.764711
RightHand -4.511634 -0.000000 9.729589
RightHandThumb1 -24.326973 -0.000000 -32.862282
LeftUpLeg 1.239090 17.984528 10.999411
LeftLeg 124.209964 -0.000000 -0.000000
LeftFoot 38.507265 8.453096 -17.129995
LeftToeBase 8.252399 -0.000000 -0.000000
RightUpLeg -35.401531 -12.844680 -6.046105
RightLeg 12.891667 -0.000000 -0.000000
RightFoot -11.804115 -17.363148 -8.498763
RightToeBase -2.364723 -0.000000 0.000000
3232
root -6.961863 33.636637 -2.653475 36.378783 8.116037 16.991532
Spine -27.913401 8.552371 -8.636358
Head 2.144370 29.416707 1.169143
LeftShoulder -8.244014 15.566632 12.456379
LeftArm 28.708741 -11.058495 -84.179050
LeftForeArm 8.704688 -0.000000 86.368918
LeftHand -29.782425 -0.000000 34.320269
LeftHandThumb1 -26.253704 0.000000 33.147579
RightShoulder -16.213969 7.258378 -19.211077
RightArm -12.691081 -24.298914 74.921136
RightForeArm -23.499805 0.000000 33.830973
RightHand -4.505761 0.000000 9.765868
RightHandThumb1 -24.326973 -0.000000 -32.862282
LeftUpLeg 1.280669 18.077912 11.047002
LeftLeg 124.195354 -0.000000 -0.000000
LeftFoot 38.546487 8.611674 -17.316547
LeftToeBase 7.789306 -0.000000 -0.000000
RightUpLeg -35.579217 -12.947818 -5.951083
RightLeg 12.806300 -0.000000 -0.000000
RightFoot -11.760449 -17.226042 -8.535855
RightToeBase -2.419399 -0.000000 0.000000
3233
root -6.963684 33.638500 -2.665574 36.527251 8.066688 16.986937
Spine -27.919856 8.569170 -8.590481
Head 2.061670 29.560644 1.106451
LeftShoulder -8.358723 15.607734 12.370282
LeftArm 28.823985 -10.984979 -84.323967
LeftForeArm 8.868736 -0.000000 86.574177
LeftHand -30.001455 -0.000000 34.582798
LeftHandThumb1 -26.253704 0.000000 33.147579
RightShoulder -16.181135 7.268633 -19.240810
RightArm -12.667646 -24.220832 74.854225
RightForeArm -23.497912 -0.000000 33.859529
RightHand -4.506345 -0.000000 9.743324
RightHandThumb1 -24.326973 -0.000000 -32.862282
LeftUpLeg 1.345228 18.160451 11.088438
LeftLeg 124.205818 -0.000000 -0.000000
LeftFoot 38.519192 8.527008 -17.074740
LeftToeBase 8.005089 -0.000000 -0.000000
RightUpLeg -35.744710 -13.036959 -5.874819
RightLeg 12.735080 -0.000000 -0.000000
RightFoot -11.736412 -17.086326 -8.579265
RightToeBase -2.438802 -0.000000 0.000000
3234
root -6.966924 33.639712 -2.678376 36.690363 8.011788 16.970796
Spine -27.964584 8.608543 -8.570300
Head 1.958204 29.631394 1.034826
LeftShoulder -8.392008 15.599531 12.312018
LeftArm 28.835965 -10.928292 -84.451900
LeftForeArm 9.032134 0.000000 86.885521
LeftHand -30.096831 -0.000000 34.555798
LeftHandThumb1 -26.253704 0.000000 33.147579
RightShoulder -16.175066 7.255059 -19.249130
RightArm -12.634154 -24.216516 74.763905
RightForeArm -23.479672 -0.000000 33.893812
RightHand -4.533719 -0.000000 9.745733
RightHandThumb1 -24.326973 -0.000000 -32.862282
LeftUpLeg 1.402932 18.259516 11.141575
LeftLeg 124.261811 -0.000000 -0.000000
LeftFoot 38.577337 8.602376 -17.237063
LeftToeBase 7.706624 -0.000000 -0.000000
RightUpLeg -35.932138 -13.097198 -5.793589
RightLeg 12.669479 -0.000000 -0.000000
RightFoot -11.709779 -16.972669 -8.587784
RightToeBase -2.433134 -0.000000 0.000000
